<svg id="图层_1" data-name="图层 1" xmlns="http://www.w3.org/2000/svg" viewBox="0 0 325.25 105.74"><defs><style>.cls-1{fill:#fff;fill-rule:evenodd;}</style></defs><title>科加诺</title><path class="cls-1" d="M108.94,69a53,53,0,0,1-46.78,40.5V90.7A34.56,34.56,0,0,0,90.28,69ZM52.62,90.58C36,88.1,23.19,74,23.19,57c0-18.75,15.52-34,34.67-34A34.67,34.67,0,0,1,90.1,44.52h18.84A52.91,52.91,0,0,0,96.77,21.33H18a53,53,0,0,0,34.61,88.2v-19Zm-32-72c.34-.33.69-.66,1.05-1h71.4l1,1Zm3.26-2.9,1.25-1H89.62l1.25,1Zm5.32-3.82c.54-.34,1.08-.67,1.64-1H83.92c.55.31,1.09.64,1.63,1ZM35,8.75a53,53,0,0,1,44.79,0Z" transform="translate(-4.41 -3.79)"/><path class="cls-1" d="M142.8,106.37a9.5,9.5,0,0,0,6.84-2.62l-1.85-1.8a7,7,0,0,1-4.87,1.92c-3.88,0-6.33-2.64-6.33-7S139.22,90,143,90a6.43,6.43,0,0,1,4.3,1.63l1.88-1.83A9.3,9.3,0,0,0,143,87.52c-5.55,0-9.91,3.55-9.91,9.48s4.24,9.37,9.76,9.37Zm18,0c5.65,0,9.59-3.63,9.59-9.49s-3.94-9.36-9.59-9.36-9.56,3.5-9.56,9.36,3.92,9.49,9.56,9.49Zm0-2.5c-3.64,0-6-2.72-6-7s2.36-6.87,6-6.87,6,2.6,6,6.87-2.38,7-6,7ZM175,106.05h3.1v-9c0-1.63-.26-4-.41-5.63h.12l1.73,4.2,3.85,8.67h2.15l3.82-8.67,1.77-4.2h.12c-.18,1.65-.45,4-.45,5.63v9H194V87.86h-4l-4,9.19c-.51,1.21-.93,2.45-1.44,3.69h-.14c-.51-1.24-1-2.48-1.47-3.69l-4-9.19h-4v18.19Zm24.79,0h3.1v-9c0-1.63-.27-4-.42-5.63h.12l1.74,4.2,3.85,8.67h2.15l3.82-8.67,1.77-4.2H216c-.18,1.65-.44,4-.44,5.63v9h3.22V87.86h-4l-4,9.19c-.51,1.21-.93,2.45-1.44,3.69h-.14c-.51-1.24-1-2.48-1.47-3.69l-4-9.19h-4v18.19Zm24.79,0H228V87.86h-3.46v18.19Zm13.7,0h3.47V90.26h6.48v-2.4h-16.4v2.4h6.45v15.79Zm20.46,0h3.47V87.86h-3.47v18.19Zm9.23,0h3.29V97.47c0-2-.27-4.07-.45-6H271l2.3,3.8,7.29,10.73h3.55V87.86h-3.29v8.48c0,2,.27,4.17.45,6h-.15l-2.3-3.85-7.28-10.68H268v18.19Zm21.92,0h3.47V98.21h8.12V95.82h-8.12V90.26h9.56v-2.4h-13v18.19Zm24.94.32c5.65,0,9.59-3.63,9.59-9.49s-3.94-9.36-9.59-9.36-9.56,3.5-9.56,9.36,3.92,9.49,9.56,9.49Zm0-2.5c-3.64,0-6-2.72-6-7s2.36-6.87,6-6.87,6,2.6,6,6.87S318.48,103.87,314.83,103.87Z" transform="translate(-4.41 -3.79)"/><path class="cls-1" d="M171.37,31.47c-1.9-2.77-6.32-6.5-9.73-9.09l-4.92,4.3c3.53,2.71,7.64,6.75,9.41,9.47l5.24-4.68ZM169.6,48c-2.09-2.72-6.76-6.63-10.36-9.16l-4.8,4.3c3.67,2.84,8.09,6.88,10,9.66L169.6,48Zm-16,4.92c-1.2-1.45-6.38-7.38-8.21-9.15v-.51h8.34v-7h-8.34V27.62a56.81,56.81,0,0,0,8.15-2.33l-4.23-6.13A96,96,0,0,1,129,24.34a23,23,0,0,1,2,5.81c2.33-.25,4.67-.63,7.13-1v7.13h-9.53v7h8.52c-2.27,6.13-5.81,12.88-9.34,16.93a42,42,0,0,1,3.47,7.13,58.82,58.82,0,0,0,6.88-12.5V77.57h7.26V51.93a68.26,68.26,0,0,1,3.79,7l4.42-5.94Zm34.16,7.33-7.45,1.33V77.51H173V62.92L153.88,66.2l-1.2-7.13L173,55.6v-37h7.38V54.33l6.25-1.07,1.2,7Zm28-30.5c.07-3.6.13-7.33.13-11h-7.58c0,3.66,0,7.39-.06,11h-7.58v7.32h7.39c-.5,13.9-2.4,26.53-9.09,35.11A20.21,20.21,0,0,1,205,77.57c7.52-10,9.85-24.56,10.61-40.48h6.19c-.76,20.91-1.7,28.74-3.09,30.57a2.41,2.41,0,0,1-2.21,1.2c-1.14,0-3.16-.07-5.37-.26a20.57,20.57,0,0,1,2.15,7.77,36.19,36.19,0,0,0,7.19-.31,6.68,6.68,0,0,0,4.87-3.35c2.21-3,3.15-12.82,4.1-39.53.06-1,.13-3.47.13-3.47l-13.71.06Zm24.06,34.86V33h8.47V64.63Zm-7.51-38.84V76.24h7.51V71.89h8.47V75.8h7.83v-50Zm56.38,3.28a79.38,79.38,0,0,0-10.23-9.47l-4.8,4.55c3.35,3.09,7.9,7.32,9.92,10.1l5.11-5.18Zm30.44,31.45V68.6H304.09V60.52Zm10.48-12.75H306.17a48.17,48.17,0,0,1-3.41,6.12h23.68V77.38h-7.26V75.17H304.09v2.46h-6.95V61a33.47,33.47,0,0,1-4.23,3.67,33.65,33.65,0,0,0-2.27-2.53,29.41,29.41,0,0,0,1.64,5.05C282.05,73.91,280,75.23,279,76.5a22.42,22.42,0,0,0-4.55-4.86,11.57,11.57,0,0,0,3.91-8.28V45.18h-7.26V38h14.59V63.49L289.56,61c-.69-.69-1.39-1.32-1.95-1.83a33.14,33.14,0,0,0,10.48-11.36h-9v-6.7h12.06c.63-1.77,1.14-3.47,1.64-5.36h-5V31h-8.21v-6.5h8.21V18.66h7.26v5.87h8.84V18.66h7.26v5.87h8.08V31H321.2v4.68h-7.26V31H305.1V35l5.18.88c-.45,1.83-.89,3.54-1.46,5.24h20.84Z" transform="translate(-4.41 -3.79)"/><path class="cls-1" d="M57.86,30.54a26.43,26.43,0,0,1,10.89,2.34h-8L59.21,41l7,33.81H77.41a26.47,26.47,0,0,1-39.11,0H49.47l-6-28.16L37.94,74.42a26.47,26.47,0,0,1,8.49-41.29L45,41l7,33.81H63.6L54.87,32.88H47a26.4,26.4,0,0,1,10.89-2.34Zm11.3,2.53,8.61,41.36a26.47,26.47,0,0,0-8.61-41.36Z" transform="translate(-4.41 -3.79)"/></svg>